/* XPM */
static char *bitcoin64[] = {
/* columns rows colors chars-per-pixel */
"64 64 187 2 ",
"   c #D40157",
".  c #D4015C",
"X  c #D4095F",
"o  c #D60561",
"O  c #D80661",
"+  c #D60B64",
"@  c #D90B65",
"#  c #D60E68",
"$  c #D90E68",
"%  c #D61166",
"&  c #D91167",
"*  c #D7136A",
"=  c #D9146A",
"-  c #D71A6E",
";  c #D91A6E",
":  c #D71D70",
">  c #DA1C70",
",  c #D7216E",
"<  c #D9206E",
"1  c #D72271",
"2  c #DA2474",
"3  c #D72875",
"4  c #DA2976",
"5  c #DB2779",
"6  c #D62E79",
"7  c #DC2D7A",
"8  c #D7337A",
"9  c #DD337D",
"0  c #DD387D",
"q  c #3F8402",
"w  c #418600",
"e  c #468B01",
"r  c #4D8D03",
"t  c #4C8E08",
"y  c #4C9307",
"u  c #4D910A",
"i  c #539302",
"p  c #5D9B07",
"a  c #54930A",
"s  c #59960A",
"d  c #5C990D",
"f  c #589715",
"g  c #5C9A16",
"h  c #539318",
"j  c #5F971A",
"k  c #629B14",
"l  c #619D1C",
"z  c #699D1E",
"x  c #65A01F",
"c  c #6CA324",
"v  c #70A42B",
"b  c #77AA34",
"n  c #7BAD3C",
"m  c #80AF3F",
"M  c #81AF42",
"N  c #82AE4F",
"B  c #86B34C",
"V  c #86B252",
"C  c #8BB656",
"Z  c #8CB954",
"A  c #8EB759",
"S  c #93BA5E",
"D  c #99BE63",
"F  c #9CBE68",
"G  c #9CC26B",
"H  c #9FC372",
"J  c #A2C477",
"K  c #A5C679",
"L  c #A9C87C",
"P  c #DC3681",
"I  c #DE3B82",
"U  c #E03382",
"Y  c #E13D84",
"T  c #DE4285",
"R  c #DF4589",
"E  c #DE4C8C",
"W  c #DD528E",
"Q  c #E14286",
"!  c #E14489",
"~  c #E24B8C",
"^  c #E2518F",
"/  c #E14F90",
"(  c #E25493",
")  c #E35B96",
"_  c #E55698",
"`  c #E45D99",
"'  c #E85E99",
"]  c #E6639C",
"[  c #E9659E",
"{  c #E5699F",
"}  c #E8699E",
"|  c #E767A0",
" . c #E66CA1",
".. c #E86FA4",
"X. c #E673A5",
"o. c #E872A5",
"O. c #E678A5",
"+. c #E978A6",
"@. c #E675A8",
"#. c #E975A9",
"$. c #E67CAB",
"%. c #E97CAC",
"&. c #EB7FB0",
"*. c #EA81AE",
"=. c #E784B0",
"-. c #EB84B2",
";. c #EC8BB5",
":. c #E68EB8",
">. c #ED8DB9",
",. c #F08FBA",
"<. c #EC91B7",
"1. c #ED93BB",
"2. c #ED9ABE",
"3. c #F095BE",
"4. c #F19DBE",
"5. c #EBA0BF",
"6. c #A6C982",
"7. c #ACCC84",
"8. c #AFCE8A",
"9. c #B1CF8B",
"0. c #B3D18D",
"q. c #B9CE95",
"w. c #B8D696",
"e. c #BAD699",
"r. c #BBD89E",
"t. c #C0D89E",
"y. c #C3D7A6",
"u. c #C2D9A3",
"i. c #C7DCAB",
"p. c #CCDFB1",
"a. c #C5E1AE",
"s. c #CDE1B4",
"d. c #CDE1B8",
"f. c #D0E2BA",
"g. c #F78FC4",
"h. c #EE9DC2",
"j. c #F593C4",
"k. c #F09DC2",
"l. c #EEA3C4",
"z. c #EEACC9",
"x. c #F1A2C4",
"c. c #F1ABC7",
"v. c #F1A5C9",
"b. c #F2ABCB",
"n. c #F1B2CE",
"m. c #F4B4D1",
"M. c #F4BBD4",
"N. c #F5BFD9",
"B. c #F4C1D6",
"V. c #F5C4DA",
"C. c #F8C5DD",
"Z. c #F6CBDE",
"A. c #F9CBDF",
"S. c #D4E4C0",
"D. c #D9E6C3",
"F. c #DAE8C5",
"G. c #DEEBCF",
"H. c #DEEBD1",
"J. c #E3EBD3",
"K. c #ECE3DC",
"L. c #E6EED9",
"P. c #E4F0D8",
"I. c #E9F1DD",
"U. c #F6CEE0",
"Y. c #F8CEE1",
"T. c #F7D4E4",
"R. c #F9D4E4",
"E. c #F9D9E6",
"W. c #F9D7E8",
"Q. c #F6DBE8",
"!. c #FADCEA",
"~. c #EDE3E1",
"^. c #FAE1E7",
"/. c #FAE3EE",
"(. c #FAEAEE",
"). c #ECF5E3",
"_. c #F1F5E7",
"`. c #F2F6EB",
"'. c #FBE6F1",
"]. c #FCECF3",
"[. c #FDEEF8",
"{. c #F7F7F2",
"}. c #FDF1F6",
"|. c #F7F9F3",
" X c #F9FBF6",
".X c #FDF4F9",
"XX c #FFFEFE",
/* pixels */
"XXXXXXXXXXXXXXXXXXXXXXXXXXXXXXXXXXXXXXXXXXXXXX}.Y.l.=.] ! 0 6 4 3 4 0 T ` %.v.Z.}.XXXXXXXXXXXXXXXXXXXXXXXXXXXXXXXXXXXXXXXXXXXXXX",
"XXXXXXXXXXXXXXXXXXXXXXXXXXXXXXXXXXXXXXXX}.M.%.! 2 > > - ; ; - - - - - = - > ; 4 ! #.M.}.XXXXXXXXXXXXXXXXXXXXXXXXXXXXXXXXXXXXXXXX",
"XXXXXXXXXXXXXXXXXXXXXXXXXXXXXXXXXXXXW.;.! 4 - - > ; > - ; ; - > > ; - ; - ; : - ; > 4 ! =.E.XXXXXXXXXXXXXXXXXXXXXXXXXXXXXXXXXXXX",
"XXXXXXXXXXXXXXXXXXXXXXXXXXXXXXXXW.%.0 2 : - - > - - - ; ; ; ; - - > - > - - ; - > - = - 2 7 @.T.XXXXXXXXXXXXXXXXXXXXXXXXXXXXXXXX",
"XXXXXXXXXXXXXXXXXXXXXXXXXXXX.X<.Y 2 ; - ; ; - ; ; ; ; > - - > ; ; > - - ; ; ; ; ; ; - ; - - > Y ;.[.XXXXXXXXXXXXXXXXXXXXXXXXXXXX",
"XXXXXXXXXXXXXXXXXXXXXXXXXXV.) 3 ; ; = - ; ; ; - - ; ; ; ; ; % O O & - ; ; ; ; ; ; - - ; ; > - > 4 ( N.XXXXXXXXXXXXXXXXXXXXXXXXXX",
"XXXXXXXXXXXXXXXXXXXXXXXX2.I - - ; ; ; > ; ; - > ; ; ; 2 $ . ; P P - . $ > - ; - > > - - > - - ; - > Y 1.XXXXXXXXXXXXXXXXXXXXXXXX",
"XXXXXXXXXXXXXXXXXXXX].*.4 > - - ; - ; $ O . . O & ; > O = ..m.Y.Y.m.o.; O > ; = O . . O $ ; - = - ; ; 4 $.'.XXXXXXXXXXXXXXXXXXXX",
"XXXXXXXXXXXXXXXXXX/.#.> > ; > - - - @ & ! ] ) P O + O - 1.].XXXXXXXX].2.; O O O 6 ) ] Q = + - - - ; - > > ..!.XXXXXXXXXXXXXXXXXX",
"XXXXXXXXXXXXXXXX/...; ; - ; ; ; - + P k.Y.'./.V.*.7 . -.XXXXXXXXXXXXXX.X>.o 5 &.C.!.'.R.x.P # ; ; - ; > ; ; ../.XXXXXXXXXXXXXXXX",
"XXXXXXXXXXXXXX(.@.- - ; - ; ; ; & 9 B.XXXXXXXX XXXm.;.(.XX XJ.J H H.XXXX(.:.m..XXXXXXXXXXXB.U = = ; - ; ; : ; ..'.XXXXXXXXXXXXXX",
"XXXXXXXXXXXX.X-.1 ; ; ; - - > = > -.XXXXXXI.`.XXXXXXXXXXXX_.C w q V I.XXXXXX XXXXX`.I.XXXXXX>.: = ; - : - ; ; > %..XXXXXXXXXXXXX",
"XXXXXXXXXXXXl.2 > ; ; ; - - ; $ 9 W.XX Xf.V S s.{.XXXXXXXXL r f g r K  XXXXXXX{.d.D N d. XXX!.0 & ; - ; ; ; - ; 2 h.XXXXXXXXXXXX",
"XXXXXXXXXXZ.0 - ; ; ; - - ; ; $ I ].XX|.S w e g F S. XXXp.j t 8.0.y f i.XX XD.H g e q C  XXX[.Q & - ; ; - ; ; ; > 0 V.XXXXXXXXXX",
"XXXXXXXX[.` ; ; ; ; ; ; ; > ; & 0 W.XX X7.i p s w l 0.F.n q A {. XS w b D.q.l e i p i J  XXX!.0 $ ; - ; = ; ; ; - ; ( [.XXXXXXXX",
"XXXXXXXX1.> ; ; ; ; > ; - - > = > 4.XXXXL.d i F M u r d e c F.XXXXG.v e d r t m F d d J.XXXXv.2 = ; - ; ; - ; ; ; ; 1 ,.XXXXXXXX",
"XXXXXX/.Y ; - - ; ; ; ; ; - ; ; & ) XXXX XZ e 7.`.0.v u h t.XXXXXXXXu.f t v 8._.8.e B  XXX X` * & ; ; ; ; - ; ; ; ; = I !.XXXXXX",
"XXXXXX=.: > ; - ; ; ; - ; ; ; ; & 4 T.XXXXi.r k I.XXI.6.u.|.XXXXXXXX|.u.6.P.XX).z e u.XXXXQ.7 = > - - > ; ; ; ; ; ; > > %.XXXXXX",
"XXXX'.I > ; ; ; ; ; ; ; - ; ; - = & -.XXXX`.c u a..XXXXXXXXXXXXXXXXXXXXXXXXXXXp.a x _.XXXX;.* = ; ; ; ; ; ; ; ; ; ; ; ; 0 !.XXXX",
"XXXX<.1 ; ; > ; ; ; ; ; - ; ; = = $ _ XXXXXXe.r.K.W.Y.!.[.XX XXXXX XXX[.!.U.W.~.r.w.XXXXXX' # & ; - ; ; ; ; ; ; ; > ; ; 2 ;.XXXX",
"XXXX! - ; ; ; ; - ; ; ; ; ; - % 4 ;.'.XXXXXX[.j.! > ; 2 ( n.W.Z.V.!.m.( 2 ; ; Y g.].XXXXXX'.<.4 $ - - ; - ; ; ; ; ; ; ; > ! .XXX",
"XXV.5 ; > ; ; ; ; - ; ; ; * $ R T.XXXXXXXXY.Y . . - 2 ; # - > & & > > + : 2 ; . O I V.XXXXXXXXR.~ @ ; ; = - > ; ; ; ; - - 2 B.XX",
"XX&.> > ; ; ; > ; - ; ; - @ ! /.XX XXXXXN.P . 5 ;.W.(.{ = o % 7 9 & o # ] (.Q.<.5 . P M.XXXXXXXX'.~ $ - ; ; - ; - ; - - > > %.XX",
".X/ - ; - ; - ; - - - ; O 9 V.XXXXXXM.~ > @ 4 U..XXXv.2 . ( N.].(.V.` . : v.XX.XY.9 + : ~ m.XXXX XY.P O ; - ; ; ; > - - > - ~ .X",
"W.4 - - ; > ; ; ; - ; & = -.XXXX.Xh.* . = + l.XXXX'.Q . ..'. XXXXXXX/.o.  0 /.XXXXz.$ = . = 1. XXXXX;.; & > - > ; ; ; ; ; ; 5 Y.",
"m.< ; - ; - ; - ; ; > @ Y T.XXXXM.; O 0 ; 9 '.XXXXh.@ 7 V.XXXXXXXXXXXXY.9 O h.XXXX[.U = 0 O * m.XXXXW.T O ; - ; ; ; ; ; ; ; > b.",
";.> ; ; - - ; ; ; - ; O ..XXXX(.( . ` b.O T .XXXXXO.. ..].XXXXXXXXXXXX}.... X.XX X X! O v.} . / /.XXXXX.@ = > ; ; ; - ; - > > -.",
" .> > ; > ; > ; > > + ; 1.XXXXV.& 2 Y.Y.O 9 }.XXXX{ . *..XXXXXXXXXXXXX[.;.. } XXXX}.0 o V.W.1 # M.XXXXk.; # - - ; - ; ; - - > } ",
"W > ; ; ; ; - ; - > $ 2 b.XXXXl.. ! XX].0 @ v.XXXX$.. | ].XXXXXXXXXXXX}.X.. X.XXXXb.$ 9 ].XX~ . l.XXXXb.4 O : - ; - ; ; > - > W ",
"T - ; ; ; ; > ; - - O 4 b.XXXXh.. ( XX}.` O 9 M.XXV.> ; V.XXXXXXXXXXXXV.2 * B.XXB.0 . ) }. X) . 1.XXXXn.4 @ > - ; - ; - > ; > I ",
"P - ; ; ; ; ; ; ; ; @ > v.XXXXb.. 0 l.] 4 - O 6 <.M.Q . ^ V.XXXXXXXXY./ o I n.1.7 + - 2 ` l.I . b.XXXXv.2 @ ; ; ; - - ; - - ; 9 ",
"8 - - - ; ; ; ; ; - = $ %.XXXXT.I + - . = > - . . 2 = O o R <.M.M.<.R + . = 2 . . ; - = . ; $ P Y.XXXX-.& = > ; ; - ; ; > - - 6 ",
"9 ; ; ; ; ; ; ; - > - O ..XXXX].{ . + ..$.+ Y -.~ 4 7 ^ 7 O O : : O o 4 ~ 9 2 ~ =.I + #.o.$ . ] ].XXXXX.+ * : - - - = - - - ; 8 ",
"P ; = ; ; ; ; > > ; % - 1.XXXXR.I + @.[.b.. ` XX'.V.Z.<.9 . + ; : + O 7 :.A.V.'.XX} . l..X%.O U U.XXXX2.- # > - ; ; ; ; ; ; ; 0 ",
"R : ; ; ; ; ; ; ; > O 0 M.XX Xk.  I ].XXb.. Y .X XXXQ.Q . I -.m.m.;.Q O Y R.XXXX.X! . l.XX].Q   <.XXXXV.P O ; - ; - ; ; ; - ; I ",
"W - ; ; ; ; ; ; - - . ! T.XX].{ . %.XXXXT.> + M.XX.X! . ! Y.XXXXXX XY.~ . Q .X XN.& ; T.XXXX-.. ] '.XXQ.~ O > > ; ; ; ; ; - > W ",
" .: - > ; ; ; ; - - O ! Q.XX'.` . <.XXXXXX .. Y W.m.& - Z.XXXXXXXXXXXXY.; % z.E.! o ] .XXXXX2.. ( /.XX/.W o ; ; ; > ; ; ; > > | ",
"1.> - - ; ; ; ; > > O Q T.XX].... ..XXXX.X1.$ . ! ~ . } '.XXXXXXXXXXXX].... ! ~ . + -.XXXXXX#..  .].XXT.T o - ; ; ; ; - > - > ;.",
"m.2 ; ; ; ; - - - : O 7 m.XXXXl.. 9 !.XXb.- ; 3 O O . -.}.XXXXXXXXXXXX.X:.. + . 4 = ; b.XX'.0 . h.XXXXM.9 O : > ; - ; ; - ; > n.",
"!.4 ; - - ; - - ; > % - ,.XXXXW.0 . ] T.9 o ` V.%.7 . +.].XXXXXXXXXXXX[.#.. 9 $.V.] o 9 V.} . 9 T.XXXX1.= % : - ; ; ; ; ; - 7 W.",
" X_ > > - - ; ; - ; - O _ ]. XXXb.$ X 4 + 9 '.XXXXl.+ 8 A.XXXXXXXXXXXXT.0 + 1.XXXX'.0 $ 4 O # b..XXX}.) O ; ; ; ; ; ; - ; > / XX",
"XX>.> ; - - ; > ; ; ; @ < h.XXXX.Xh.2 O & *.XXXXXX'.I . o.(.XXXXXXXX'.+.. I '.XXXXXX;.+ + : 2..XXXXXx.2 $ > > - ; ; ; > ; > -.XX",
"XXZ.4 - > ; ; ; ; ; ; - O I Y.XXXXXXA.7 + l..XXXXXXX1.- . _ B.[..XV.' o ; :.XXXXXXXXb.@ 4 C.XXXXXXW.Q O - = - ; ; ; ; ; - 7 V.XX",
"XXXX( - ; > = ; ; - ; ; - % W /.XXXX].) . j. XXXXXXX..& O o ; 9 P = . O # [ XXXXXXXXk.. ( ].XXXX/.^ $ - - ; ; ; > ; ; ; ; ! XXXX",
"XXXXh.5 ; ; ; = ; ; ; ; ; ; $ ~ (.XX.X%.. _  XXXXXV.2 - %.} ; o O : ] *.< - M.XXXXXX`   $..XXX}.^ $ ; - ; ; ; = - ; ; - 2 1.XXXX",
"XXXX].I ; ; > ; ; ; ; ; - > + 2 n.XXXXZ.# + h.XXXX;.. ( !.}.T.M.M.T.[./.) . -.XXXXh.# O B.XXXXm.2 + ; ; ; ; ; ; ; ; ; - I (.XXXX",
"XXXXXX;.2 ; ; ; ; - ; ; ; - ; & X.XXXX.X@.. = %./.... %..XXXXXXX XXXXX.X=.. [ /.%.-   o.}.XXXX@.= ; ; ; - ; ; ; ; ; - 2 ;.XXXXXX",
"XXXXXX[.Y : ; ; ; > ; ; ; ; ; $ 6 T.XXXX(.} . . 4 2 . %.}.XXXXXXXXXXXX[.-.O 2 7 o . ` /.XXXXT.0 $ ; ; ; ; ; ; ; ; - - Q '.XXXXXX",
"XXXXXXXXx.3 > - ; - ; ; ; ; > = # ' XXXXXX'.h.Y & O . / '.XXXXXXXXXX X'.( . @ % T 1.'.XXXXXX] = = - ; - ; - ; ; ; ; 4 k.XXXXXXXX",
"XXXXXXXX[.} - > - > ; ; ; ; - > = ; *.XXXXXXXXW.V.h.2 O ,.XXXXXXXXXXXX2.O > 1.V.W.XXXX XXX-.- & ; - - ; - - ; ; ; ; ] ].XXXXXXXX",
"XXXXXXXXXXQ.Q - ; ; ; ; ; - ; > - = - #./.XXXXXXXXXX%.. * =.Q.XXXXQ.-.; . %.XXXXXXXXXX'.%.- & - ; - ; ; - ; ; - ; Y R.XXXXXXXXXX",
"XXXXXXXXXXXXn.7 ; ; ; ; ; ; - ; > ; & $ ~ x.Q.XXXXXX'. .. . Y ] ] Y .   { '.XXXXXX!.l.( & $ ; > - ; ; ; > ; ; ; 4 b.XXXXXXXXXXXX",
"XXXXXXXXXXXXXX1.2 - ; : ; ; ; ; ; - ; ; + > ! -..XXXXX'.;.0 o . . . 0 ;./.XXXX X-.! 2 + # > - - ; ; - - - ; ; 2 ;.XXXXXXXXXXXXXX",
"XXXXXXXXXXXXXX}.-.; ; > - ; ; ; ; ; ; ; ; + O O $..XXXXXXXY.h.=.-.h.V.XXXXXX.X-.O . + - > : > ; ; ; ; ; > ; > &.}.XXXXXXXXXXXXXX",
"XXXXXXXXXXXXXXXX].&.> > ; ; ; - - ; ; ; - ; > $ + %.^.XXXXXXXXXX XXXXXXXXX^.*.% + ; > ; = > ; ; ; ; ; ; - ; +.(.XXXXXXXXXXXXXXXX",
"XXXXXXXXXXXXXXXXXX].&.5 ; > ; > ; - ; > - ; ; ; # X _ n.^.XXXXXXXXXXXX/.n.` O + 2 - : ; ; > ; ; ; ; ; ; 4 &.].XXXXXXXXXXXXXXXXXX",
"XXXXXXXXXXXXXXXXXXXX.X1.9 ; ; ; ; ; ; - ; - ; ; < & . ; ` 1.m.V.C.M.1.] : . $ > ; = - ; ; ; ; ; = > ; 9 <..XXXXXXXXXXXXXXXXXXXXX",
"XXXXXXXXXXXXXXXXXXXXXXXXn.R ; - ; ; ; : - ; ; - ; > > @ . . = 4 2 ; O . + - > - ; ; - - - ; : > > - T b.XXXXXXXXXXXXXXXXXXXXXXXX",
"XXXXXXXXXXXXXXXXXXXXXXXXXXW.{ 8 ; > > - - - > ; ; ; ; > > - $ + + # - ; ; - : ; ; > - ; > ; ; ; 4  .W.XXXXXXXXXXXXXXXXXXXXXXXXXX",
"XXXXXXXXXXXXXXXXXXXXXXXXXXXXXXl.! 2 ; - > ; - ; ; - ; ; - - > - ; : ; ; ; ; ; - ; ; > - - ; 1 ! l.XXXXXXXXXXXXXXXXXXXXXXXXXXXXXX",
"XXXXXXXXXXXXXXXXXXXXXXXXXXXXXXXX].1.T 4 - - - - ; ; ; - - - ; - ; ; > - ; > ; - : > ; - 4 T <.'.XXXXXXXXXXXXXXXXXXXXXXXXXXXXXXXX",
"XXXXXXXXXXXXXXXXXXXXXXXXXXXXXXXXXXXX].l.) 7 > : - ; - ; - - - > ; ; ; > ; ; ; ; : > 4 ( l.].XXXXXXXXXXXXXXXXXXXXXXXXXXXXXXXXXXXX",
"XXXXXXXXXXXXXXXXXXXXXXXXXXXXXXXXXXXXXXXXXXY.1.` 9 2 < ; : > - , = - : - ; 2 > 7 ` 1.Y.XXXXXXXXXXXXXXXXXXXXXXXXXXXXXXXXXXXXXXXXXX",
"XXXXXXXXXXXXXXXXXXXXXXXXXXXXXXXXXXXXXXXXXXXXXXXX!.M.2.+.) E T 8 8 I E ) +.2.M./. XXXXXXXXXXXXXXXXXXXXXXXXXXXXXXXXXXXXXXXXXXXXXXX"
};
