/* XPM */
static char *bitcoin32[] = {
/* columns rows colors chars-per-pixel */
"32 32 136 2 ",
"   c #D5025E",
".  c #D4095F",
"X  c #D60561",
"o  c #D50A64",
"O  c #D80A64",
"+  c #D70E69",
"@  c #D61066",
"#  c #D91267",
"$  c #D71368",
"%  c #DA136A",
"&  c #D71B6D",
"*  c #D91A6E",
"=  c #D71C70",
"-  c #D91B70",
";  c #D4246D",
":  c #D52573",
">  c #DB2372",
",  c #D42A75",
"<  c #DE2A76",
"1  c #DC2778",
"2  c #D42A78",
"3  c #DB2C79",
"4  c #D43077",
"5  c #D6347A",
"6  c #DD347D",
"7  c #D6397C",
"8  c #669E1A",
"9  c #6DA429",
"0  c #71A52E",
"q  c #78AA37",
"w  c #7BAA3A",
"e  c #77B139",
"r  c #7BB13B",
"t  c #7BAF40",
"y  c #8DBD57",
"u  c #90BC65",
"i  c #93BD69",
"p  c #97C46A",
"a  c #DD3581",
"s  c #D53E81",
"d  c #DD3D83",
"f  c #E03581",
"g  c #E03C84",
"h  c #D64485",
"j  c #DB4485",
"k  c #DC4589",
"l  c #DC4B8A",
"z  c #DE548F",
"x  c #E14286",
"c  c #E1458A",
"v  c #E14B8D",
"b  c #E0508E",
"n  c #E44A90",
"m  c #E35493",
"M  c #E45A96",
"N  c #E6549A",
"B  c #E9559B",
"V  c #E45D99",
"C  c #DF6596",
"Z  c #E16297",
"A  c #E5639C",
"S  c #E9639E",
"D  c #E16A9D",
"F  c #E962A5",
"G  c #E56CA2",
"H  c #E86CA2",
"J  c #E473A5",
"K  c #EA74A7",
"L  c #E775A9",
"P  c #EA75AA",
"I  c #E47BAA",
"U  c #EB7CAC",
"Y  c #EC81AF",
"T  c #E685B0",
"R  c #EA83B1",
"E  c #E689B3",
"W  c #EB8AB5",
"Q  c #ED87B9",
"!  c #EB8FB8",
"~  c #F18BBB",
"^  c #ED95BB",
"/  c #EE99BE",
"(  c #F197BD",
")  c #F19CBE",
"_  c #DDBEB7",
"`  c #AECD86",
"'  c #A5D984",
"]  c #B0D68D",
"[  c #B5DA94",
"{  c #B7DB9B",
"}  c #BADA9B",
"|  c #B5E199",
" . c #C4DBA5",
".. c #C9DAAD",
"X. c #CCE6B9",
"o. c #D0E6BF",
"O. c #EE9DC2",
"+. c #F296C2",
"@. c #F19CC3",
"#. c #EEA3C3",
"$. c #EFAECA",
"%. c #F2A2C5",
"&. c #F1ABC7",
"*. c #F0A6C9",
"=. c #F2ADCB",
"-. c #EFB0CC",
";. c #F1B3CE",
":. c #F3B5D1",
">. c #F4BBD4",
",. c #F8B9D4",
"<. c #FABDDF",
"1. c #F4C1D7",
"2. c #F5C5DA",
"3. c #F6CBDE",
"4. c #F9CCDF",
"5. c #F6CDE1",
"6. c #F8CDE2",
"7. c #F7D3E3",
"8. c #F9D3E4",
"9. c #FCD7E8",
"0. c #F7DDEA",
"q. c #FADBEA",
"w. c #FFDEF6",
"e. c #F6E0EC",
"r. c #FAE4ED",
"t. c #FAEAEF",
"y. c #E7FFEA",
"u. c #E9FFEA",
"i. c #F4F7EC",
"p. c #FDE4F2",
"a. c #FCEBF3",
"s. c #F5F6F0",
"d. c #FCF4F6",
"f. c #FDF9F6",
"g. c #FDF4F9",
"h. c #FFFEFE",
/* pixels */
"h.h.h.h.h.h.h.h.h.h.r.*.C s 2 ; : , s Z %.r.h.h.h.h.h.h.h.h.h.h.",
"h.h.h.h.h.h.h.h.7.D 2 & & & & - * * = = * 2 D 8.h.h.h.h.h.h.h.h.",
"h.h.h.h.h.h.g.I : & - - - - # X X O & = * * & : I d.h.h.h.h.h.h.",
"h.h.h.h.h.7.h & = O X X o o a Y Y a o + . . o - * j 6.h.h.h.h.h.",
"h.h.h.h.2.5 & - o k %.+.3 d 2.h.h.6.g < +.%.n o - - 5 1.h.h.h.h.",
"h.h.h.8.5 & - X l 6.h.h.w.p.s.i u i.r.w.h.h.7.n o - * 5 7.h.h.h.",
"h.h.g.h * * &   +.h.p t X.h.` 9 9 ` h.o.r p h.+.  & & * k g.h.h.",
"h.h.Y - * * *   Q h.y 8 w 0 0  ...0 9 q 8 y h.~   * * & - I h.h.",
"h.9., & * * & o d w.[ e | ' { f.h.} ' | r ] w.g . * & * * : 7.h.",
"h.J & * * & -   . <.u.[ _ 6.f.h.h.f.6._ [ u.<..   * & * * * G h.",
"t.2 * * * - o > @.h.p.Z k B N V V N N k Z a.h.@.< o - * * - 2 r.",
"=.& & * = # * -.h.=.x F >.m > U U 1 z ,.F j =.h.=.- # - * * * &.",
"G & & * * X P h.O.> > 3.7.M / g.g.O.V 6.4.> - O.h.U X - * * & D ",
"h & * * * o 8.q.m V M t.( A e.h.h.r.A ^ a.A M M 9.8.o * - * * h ",
"4 * * * + - a.-.V =.c / O.M 3.h.h.3.M O.( v -.V =.a.> + * - * 4 ",
", * & * % # 7.9.v v > a m 1 M &.=.V 1 m a > v v 7.7.% # - * * : ",
"2 * * * * + 4.a.d S x G ( m $ a a # m / G j S d p.6.% % - * - > ",
"4 * * - o 2 a.%.M a.K ( g.U M #.O.M P g.( K a.V @.a.4 # - - - 4 ",
"j * - * o 6 d.R V h.! d l m 3.h.h.6.m v d ! h.A T d.f o & - - j ",
"J * & - % * r.4.c ! H m * M a.f.h.a.V - m H ! v 6.r.- % & & = G ",
"$.& * & - X W h.O.* x r.2.v ( g.d.( v 1.t.c $ / h.~ X - & * & $.",
"a.2 * * - + & :.h.M G d.h.b 1 W W 1 v h.g.D M h.:.* + * * * 2 a.",
"h.I * * * - X 3 a.>.l :.=.V J A A J A =.:.v >.a.6   - * * & J h.",
"h.0.1 * * * *   #.h.J m 6 S g.h.h.g.S 6 m K h.#.  * * * * , 9.h.",
"h.h.W & * * - o 6 1.h.O.g d =.g.f.=.j g O.h.2.6 o & * * * T h.h.",
"h.h.f.l * * * -   f :.d.h.P d ( ( g K h.f.:.a   * * * & l g.h.h.",
"h.h.h.q.7 & * & - o X v 4.h./ k c ^ h.6.v X o - * * & 7 9.h.h.h.",
"h.h.h.h.7.7 & * * - %   6 >.f.h.h.g.1.6   $ - & * & 7 4.h.h.h.h.",
"h.h.h.h.h.9.l ; & & = - o # n U Y n # O * - * * & l 9.h.h.h.h.h.",
"h.h.h.h.h.h.h.E , & * - - * o X X o $ = * * - , E h.h.h.h.h.h.h.",
"h.h.h.h.h.h.h.h.0.I 4 = = & & & - & - & - 4 I 0.h.h.h.h.h.h.h.h.",
"h.h.h.h.h.h.h.h.h.h.a.;.J l 5 , , 5 h I -.a.h.h.h.h.h.h.h.h.h.h."
};
